<?xml version="1.0" standalone="no"?>
<!DOCTYPE svg PUBLIC "-//W3C//DTD SVG 20010904//EN"
 "http://www.w3.org/TR/2001/REC-SVG-20010904/DTD/svg10.dtd">
<svg version="1.0" xmlns="http://www.w3.org/2000/svg"
 width="1024.000000pt" height="1024.000000pt" viewBox="0 0 1024.000000 1024.000000"
 preserveAspectRatio="xMidYMid meet">

<g transform="translate(0.000000,1024.000000) scale(0.100000,-0.100000)"
fill="#000000" stroke="none">
<path d="M4560 10216 c0 -20 -7 -26 -32 -31 -18 -3 -73 -24 -123 -45 -49 -21
-146 -61 -215 -89 -69 -27 -170 -68 -225 -91 -55 -23 -154 -64 -220 -91 -161
-64 -354 -144 -555 -229 -130 -55 -260 -100 -289 -100 -16 0 -35 -7 -42 -16
-7 -9 -112 -101 -234 -204 -265 -227 -457 -393 -585 -507 -52 -46 -108 -95
-125 -110 -16 -14 -82 -71 -145 -127 -156 -138 -246 -213 -291 -243 -23 -15
-54 -52 -77 -91 -60 -102 -349 -663 -518 -1006 -47 -94 -92 -184 -100 -201
-53 -99 -134 -266 -134 -275 0 -6 -23 -33 -51 -60 -64 -61 -76 -102 -47 -160
l20 -41 -31 -127 c-41 -172 -66 -286 -91 -417 -12 -60 -32 -164 -45 -230 -31
-157 -83 -438 -91 -495 -4 -25 -13 -58 -21 -73 -16 -33 -7 -85 52 -287 18 -63
42 -151 53 -195 12 -44 32 -123 47 -175 36 -131 172 -611 195 -690 121 -415
132 -458 134 -525 1 -38 7 -79 14 -91 6 -12 34 -31 61 -43 50 -21 51 -22 122
-164 39 -78 85 -167 102 -197 16 -30 45 -84 65 -120 19 -36 50 -90 67 -120 18
-30 63 -113 100 -185 37 -71 76 -143 85 -160 10 -16 28 -55 40 -87 18 -49 30
-63 98 -114 42 -32 79 -60 82 -64 3 -3 25 -21 50 -40 25 -19 47 -37 50 -41 6
-7 172 -148 229 -194 39 -31 486 -412 505 -430 6 -6 56 -49 111 -95 55 -47
102 -88 105 -91 3 -3 34 -30 70 -59 36 -29 90 -79 122 -111 42 -44 63 -59 85
-59 15 -1 44 -7 63 -14 19 -8 76 -28 125 -45 50 -18 99 -36 110 -42 11 -5 34
-13 50 -18 17 -5 82 -28 145 -51 63 -23 171 -61 240 -84 69 -24 136 -48 150
-54 14 -6 88 -34 165 -61 77 -28 172 -62 210 -77 39 -15 124 -46 190 -70 66
-23 152 -54 190 -68 l70 -25 583 -1 582 0 523 174 c287 96 565 191 617 211 52
19 167 60 255 90 456 154 453 152 498 198 23 23 107 92 186 152 201 153 280
215 496 389 44 36 114 90 155 121 41 32 89 69 105 83 17 15 48 40 70 57 22 16
103 81 180 143 77 62 152 116 168 119 24 5 27 10 25 37 -1 22 15 58 59 131 33
55 140 240 238 410 328 573 330 575 381 575 33 0 69 35 83 80 13 45 8 71 -20
112 -11 14 -19 40 -19 57 0 29 66 282 90 345 9 25 46 145 130 426 34 111 60
251 60 317 0 79 12 81 84 13 29 -27 56 -50 59 -50 4 0 7 10 7 23 0 15 -25 48
-75 97 -41 41 -75 77 -75 81 0 4 18 9 41 13 66 11 109 32 109 55 0 18 -3 19
-26 11 -14 -6 -40 -10 -59 -10 -27 0 -36 6 -49 30 -8 16 -11 30 -7 30 4 0 38
30 74 66 l67 66 0 116 c-1 91 -3 113 -12 97 -19 -36 -77 -119 -123 -178 l-45
-59 0 304 c0 166 -2 517 -4 778 -3 261 -3 464 0 450 2 -14 11 -54 19 -90 8
-36 24 -123 35 -195 12 -71 30 -175 41 -230 11 -55 26 -147 34 -205 8 -58 21
-157 29 -220 8 -63 17 -131 19 -150 2 -19 5 62 5 181 3 307 -18 476 -99 794
-11 44 -34 143 -51 220 -16 77 -32 150 -35 162 -3 12 6 39 21 65 39 68 35 108
-15 152 -23 19 -53 36 -67 38 -21 2 -34 18 -70 88 -24 47 -65 123 -92 170 -26
47 -68 123 -94 170 -26 47 -70 123 -98 170 -28 47 -69 119 -91 160 -22 41 -45
82 -52 90 -7 8 -31 51 -55 95 -64 118 -181 311 -279 460 -59 90 -103 142 -154
180 -30 22 -101 78 -158 124 -57 46 -119 95 -138 110 -19 14 -68 53 -110 87
-42 33 -108 85 -146 115 -254 196 -325 253 -320 257 7 8 -26 42 -41 42 -7 0
-34 16 -60 36 -27 21 -118 73 -204 117 -85 44 -227 118 -315 164 -88 46 -351
178 -585 294 -639 316 -617 304 -673 373 -30 36 -45 46 -68 46 l-29 0 36 -50
c20 -28 52 -64 73 -81 24 -21 29 -29 16 -26 -48 13 -227 26 -435 32 -490 12
-1136 54 -1192 76 -17 7 -28 19 -28 30 0 15 -7 19 -35 19 -30 0 -35 -3 -35
-24z m495 -111 c250 -19 836 -45 1030 -45 135 0 159 -2 193 -20 l39 -20 6
-122 c4 -67 7 -174 7 -238 0 -101 -3 -119 -18 -133 -10 -10 -22 -14 -25 -11
-4 4 -13 1 -22 -6 -17 -14 -7 -17 -175 56 -117 50 -448 192 -515 221 -33 14
-78 34 -100 43 -22 10 -71 31 -110 48 -38 17 -119 52 -180 80 -60 27 -173 72
-250 101 -154 58 -187 77 -115 67 25 -3 131 -12 235 -21z m-346 -9 c116 -42
441 -176 591 -243 80 -35 177 -78 215 -95 39 -16 89 -38 112 -49 23 -10 102
-44 175 -75 73 -31 156 -66 183 -79 28 -12 89 -39 138 -60 91 -39 106 -50 90
-66 -6 -6 -133 -25 -284 -44 -151 -19 -283 -37 -294 -40 -12 -2 -59 -9 -105
-14 -154 -19 -528 -76 -755 -116 -103 -18 -151 -23 -153 -15 -8 24 -54 68 -83
80 -36 15 -36 0 1 275 11 83 29 227 40 320 26 232 29 245 47 245 9 0 45 -11
82 -24z m-155 -8 c-2 -13 -10 -93 -19 -178 -8 -85 -20 -180 -25 -210 -5 -30
-19 -133 -32 -229 -17 -133 -26 -175 -38 -179 -8 -2 -37 -23 -63 -44 l-48 -40
-127 31 c-198 49 -332 80 -722 166 -325 72 -383 86 -395 96 -5 6 -4 9 5 9 11
0 102 38 235 100 22 10 51 22 65 26 14 4 52 19 85 34 33 15 179 76 325 135
146 59 346 142 445 183 168 70 292 119 306 121 3 1 5 -9 3 -21z m2216 -275
c173 -85 358 -177 410 -204 52 -27 192 -97 310 -155 118 -59 217 -108 219
-110 11 -10 -9 -11 -59 -3 -46 7 -178 22 -565 64 -22 2 -101 9 -175 15 -74 6
-195 17 -269 26 -123 14 -136 18 -162 43 -15 15 -41 33 -57 40 l-29 12 -6 157
c-4 86 -7 189 -7 229 l0 72 38 -15 c20 -9 179 -85 352 -171z m-3745 -358 c28
-4 138 -27 245 -51 107 -24 247 -56 310 -70 645 -144 734 -166 738 -184 3 -18
-80 -55 -268 -118 -196 -67 -540 -188 -645 -226 -55 -21 -107 -40 -115 -43
-105 -38 -256 -92 -340 -123 -205 -73 -336 -122 -434 -161 -95 -38 -126 -46
-126 -33 0 8 196 380 210 399 7 9 43 76 142 265 171 325 194 362 217 356 9 -2
39 -7 66 -11z m-293 -202 c-127 -223 -145 -255 -327 -608 -48 -93 -89 -172
-91 -174 -2 -2 -24 -6 -50 -9 -38 -4 -54 -13 -85 -44 -33 -35 -47 -41 -101
-49 -35 -5 -85 -13 -113 -18 -27 -5 -83 -14 -123 -20 -39 -6 -91 -15 -115 -20
-23 -5 -78 -13 -122 -16 l-80 -8 20 23 c17 19 75 71 274 245 19 17 43 39 54
49 11 11 52 46 91 80 39 33 73 63 76 67 3 3 43 39 90 79 47 40 96 83 110 96
45 40 403 348 490 420 47 39 87 70 89 68 2 -2 -37 -74 -87 -161z m3969 113
c57 -8 203 -24 324 -36 121 -11 263 -27 315 -35 166 -26 232 -35 365 -51 71
-8 132 -17 135 -19 3 -1 30 -6 60 -9 30 -4 64 -13 75 -20 11 -7 74 -93 140
-190 66 -98 130 -189 142 -204 11 -15 41 -55 65 -89 41 -59 135 -189 268 -371
33 -45 60 -84 60 -87 0 -6 -103 40 -225 102 -145 73 -297 154 -310 163 -10 7
-298 155 -805 412 -135 69 -254 130 -265 136 -11 6 -36 18 -55 27 -19 8 -44
20 -55 27 -70 44 -105 62 -233 127 -110 56 -146 79 -157 102 l-16 29 34 0 c18
0 80 -6 138 -14z m-474 -33 c20 -39 20 -46 -2 -98 -8 -16 -30 -70 -50 -120
-21 -49 -43 -103 -50 -120 -8 -16 -48 -111 -90 -210 -41 -99 -80 -189 -85
-200 -5 -11 -53 -128 -105 -260 -53 -131 -105 -257 -115 -280 -10 -22 -25 -56
-33 -76 l-14 -35 -69 4 c-77 4 -67 -4 -164 123 -30 39 -66 83 -80 98 -14 14
-43 49 -65 76 -40 52 -176 216 -185 225 -3 3 -23 28 -45 55 -22 28 -53 66 -70
86 -46 54 -61 73 -179 219 -60 74 -133 162 -161 195 -51 58 -52 61 -39 91 9
21 23 34 41 39 44 11 354 63 503 85 74 10 180 26 235 34 129 20 211 32 365 51
69 9 186 24 260 35 187 25 175 26 197 -17z m448 -126 c77 -38 178 -91 225
-117 47 -26 297 -154 555 -285 259 -131 571 -292 695 -357 124 -65 291 -151
372 -191 l147 -72 -2 -63 -2 -64 -110 -72 c-60 -40 -135 -88 -165 -107 -30
-18 -56 -37 -58 -41 -2 -5 -8 -8 -13 -8 -5 0 -40 -19 -77 -42 -37 -24 -79 -50
-94 -58 -71 -39 -220 -128 -280 -167 -37 -24 -70 -43 -73 -43 -3 0 -35 -18
-70 -41 l-65 -41 -31 26 c-24 20 -41 26 -79 26 l-48 0 -53 90 c-30 50 -61 102
-69 117 -39 68 -166 294 -192 343 -17 30 -43 75 -58 100 -32 51 -176 307 -257
455 -31 55 -63 109 -73 120 -10 11 -40 63 -68 115 -27 52 -82 151 -123 220
-125 215 -139 247 -96 235 12 -4 85 -39 162 -78z m-239 32 c6 -5 47 -70 90
-145 44 -75 101 -172 128 -217 26 -45 53 -93 58 -107 5 -14 24 -47 42 -75 39
-58 236 -401 236 -410 0 -3 11 -22 23 -43 30 -47 82 -136 190 -327 47 -82 93
-164 103 -182 11 -18 48 -83 84 -145 l66 -113 -34 -34 c-33 -32 -36 -33 -90
-27 -32 4 -73 11 -92 16 -19 5 -96 24 -170 41 -74 16 -189 44 -255 60 -66 17
-174 42 -240 55 -66 14 -167 36 -225 50 -184 43 -402 96 -489 118 l-83 21 -15
45 c-8 25 -22 53 -31 63 -14 16 -14 21 3 55 24 51 62 141 161 387 47 116 92
224 99 240 8 17 38 86 66 155 28 69 59 144 70 167 10 24 19 45 19 48 0 2 11
28 23 57 13 29 44 101 68 159 l44 106 70 -5 c39 -2 75 -9 81 -13z m-2099 -179
c9 -13 9 -21 2 -25 -5 -4 -75 -89 -155 -188 -183 -231 -164 -207 -266 -339
-207 -268 -307 -400 -373 -491 -43 -59 -77 -96 -88 -97 -23 0 -56 -17 -84 -43
l-23 -20 -112 48 c-235 100 -780 359 -815 387 -7 6 -13 30 -13 55 0 33 4 45
18 49 9 4 91 35 183 70 91 34 219 82 285 105 235 83 331 117 454 164 69 26
136 51 150 55 69 23 419 147 600 213 113 41 210 76 215 76 6 1 16 -8 22 -19z
m3969 -95 c52 -42 107 -89 124 -105 17 -16 63 -52 103 -79 39 -27 81 -58 92
-68 12 -11 93 -78 180 -148 88 -71 165 -136 171 -144 9 -12 7 -19 -10 -32 -16
-13 -21 -29 -22 -70 -2 -48 -5 -56 -34 -75 -28 -20 -34 -21 -58 -8 -15 8 -36
14 -48 14 -26 0 -152 141 -244 274 -8 11 -48 66 -90 121 -41 54 -90 122 -110
151 -19 29 -63 93 -97 143 -90 129 -87 130 43 26z m-3699 -8 c25 -40 92 -125
141 -177 13 -14 34 -41 47 -60 13 -19 37 -50 54 -68 35 -38 174 -206 240 -290
24 -32 62 -77 85 -102 50 -55 230 -276 269 -330 24 -34 26 -42 15 -60 -13 -20
-15 -20 -928 -18 l-915 3 -17 34 c-17 33 -17 34 12 70 16 20 51 65 78 101 26
36 86 114 133 174 46 60 117 154 157 210 41 56 79 106 85 111 7 6 32 37 57 70
41 55 171 215 195 241 5 6 26 30 45 54 63 77 59 75 143 77 l78 2 26 -42z
m-2525 -707 l27 -39 -37 -38 c-88 -92 -199 -210 -357 -378 -93 -99 -246 -260
-339 -359 -94 -98 -182 -190 -195 -205 -13 -14 -47 -51 -75 -81 -28 -30 -73
-80 -100 -110 -27 -30 -81 -89 -120 -130 -39 -42 -100 -107 -135 -145 l-64
-69 7 40 c5 21 14 50 22 64 7 14 58 115 112 225 55 110 139 274 186 365 48 91
93 181 101 200 8 19 22 49 31 65 9 17 66 127 127 245 149 291 143 282 197 285
55 2 377 59 480 84 102 25 101 26 132 -19z m7136 -152 c49 -79 102 -165 118
-193 16 -27 34 -57 39 -66 6 -9 25 -45 44 -80 18 -35 59 -107 90 -159 129
-214 373 -651 368 -657 -4 -4 -132 134 -213 230 -27 32 -85 97 -129 145 -44
48 -124 139 -177 202 -53 63 -112 131 -132 149 -20 19 -36 42 -36 50 0 9 -17
32 -37 51 -20 19 -81 89 -135 154 -80 96 -98 123 -92 140 4 12 7 37 8 56 1 23
12 48 31 72 26 32 34 37 60 33 16 -3 44 -1 60 4 17 5 33 10 37 10 3 1 46 -63
96 -141z m-6757 68 c41 -18 132 -61 203 -95 70 -33 130 -61 132 -61 2 0 52
-23 111 -51 108 -51 177 -83 309 -144 48 -22 73 -39 77 -54 4 -17 -38 -55
-281 -248 -157 -126 -304 -241 -326 -258 -49 -35 -189 -146 -196 -155 -3 -3
-68 -55 -145 -115 -146 -114 -301 -239 -419 -337 -63 -53 -96 -72 -82 -49 3 5
22 82 42 172 36 169 99 419 178 709 24 91 61 226 81 300 20 74 54 192 76 261
l39 126 48 15 c68 22 72 21 153 -16z m-349 -157 c-11 -46 -43 -167 -71 -269
-29 -102 -75 -273 -102 -380 -28 -107 -54 -208 -60 -225 -7 -23 -98 -399 -124
-512 -4 -17 -13 -23 -31 -23 -28 0 -94 -31 -113 -54 -7 -8 -16 -27 -20 -43 -8
-31 3 -30 -156 -12 -171 19 -591 75 -631 84 -16 4 -23 14 -26 42 -5 41 2 53
91 148 26 28 71 77 101 110 59 66 282 305 345 369 22 23 94 99 160 170 66 71
125 134 130 140 6 6 76 81 155 166 189 203 363 381 367 376 2 -2 -5 -41 -15
-87z m6601 -2 c3 -8 25 -23 49 -35 44 -20 45 -21 61 -99 9 -43 38 -170 66
-283 27 -113 59 -254 71 -315 12 -60 30 -144 41 -185 10 -41 37 -156 59 -255
22 -99 45 -200 50 -225 41 -179 70 -324 70 -348 0 -21 -8 -32 -34 -46 l-35
-18 -88 66 c-48 36 -99 75 -113 85 -23 18 -182 135 -281 206 -23 17 -95 68
-159 115 -116 84 -179 130 -395 286 -125 90 -253 180 -338 237 -50 33 -57 41
-50 60 4 12 8 53 8 90 l0 68 60 33 c33 17 92 52 130 76 39 24 111 67 160 95
141 82 446 271 548 340 98 67 112 73 120 52z m208 -99 c28 -35 68 -81 88 -103
20 -22 43 -49 51 -61 8 -12 38 -48 67 -80 52 -59 174 -199 288 -330 33 -38 84
-96 113 -129 29 -33 74 -84 100 -114 26 -30 90 -99 142 -154 l95 -99 6 -76 7
-77 -36 -30 c-20 -16 -77 -66 -127 -111 -49 -44 -148 -129 -220 -189 -71 -59
-138 -115 -147 -123 -16 -13 -23 -13 -65 0 l-47 15 -33 154 c-18 85 -39 183
-47 219 -9 36 -38 169 -67 295 -28 127 -62 280 -76 340 -13 61 -35 160 -48
220 -13 61 -44 191 -69 290 -25 99 -46 185 -46 192 0 26 20 12 71 -49z m-3472
-185 c12 -25 10 -29 -11 -43 -12 -8 -39 -29 -58 -46 -19 -16 -64 -52 -100 -80
-35 -27 -71 -54 -80 -61 -8 -6 -75 -60 -149 -120 -125 -101 -205 -163 -361
-283 -42 -32 -70 -48 -80 -44 -29 13 -77 16 -113 6 -34 -10 -40 -8 -89 30
-231 173 -501 382 -588 453 -30 25 -88 70 -127 100 -40 31 -73 58 -73 60 0 2
5 16 12 30 l11 25 897 0 897 0 12 -27z m496 -38 c83 -20 218 -52 300 -71 83
-20 184 -44 225 -54 41 -10 93 -21 115 -24 22 -4 126 -28 230 -53 234 -55 367
-87 465 -108 41 -9 81 -19 88 -21 6 -2 12 -18 12 -36 0 -18 3 -42 5 -53 4 -16
-11 -31 -72 -75 -162 -115 -441 -313 -523 -370 -205 -144 -365 -258 -454 -323
-28 -20 -68 -48 -89 -62 -70 -47 -362 -258 -404 -292 l-42 -34 -42 28 -41 27
6 151 c4 82 9 426 12 763 5 630 7 658 44 647 8 -2 83 -20 165 -40z m-2552 -40
l27 -24 0 -718 0 -718 -46 -29 c-30 -19 -53 -44 -67 -72 -14 -30 -26 -43 -37
-39 -27 8 -372 96 -455 116 -44 10 -114 28 -155 39 -41 11 -185 47 -320 80
-258 64 -408 107 -425 121 -6 4 -10 34 -8 66 1 47 6 61 25 75 13 10 30 24 38
31 15 13 225 180 480 382 69 55 166 133 216 175 50 41 137 111 193 155 57 44
140 109 185 145 174 138 308 240 316 240 3 0 17 -12 33 -25z m2307 -401 c-5
-219 -10 -537 -10 -705 0 -169 -3 -320 -6 -338 -5 -25 -12 -32 -42 -37 -44 -8
-44 -8 -209 121 -122 96 -382 293 -427 325 -63 44 -265 196 -288 218 -25 23
-28 33 -28 86 l0 61 58 45 c31 24 83 63 114 87 66 49 477 375 591 468 l77 64
63 -5 c34 -3 73 -1 87 4 14 5 26 9 27 8 2 -2 -1 -182 -7 -402z m-2093 339 c26
-20 52 -42 56 -50 4 -7 12 -13 17 -13 8 0 101 -70 193 -146 39 -32 434 -331
474 -359 l43 -30 0 -76 0 -76 -72 -57 c-110 -85 -534 -405 -612 -461 -174
-127 -187 -135 -216 -135 l-30 0 0 720 0 720 49 0 c41 0 57 -6 98 -37z m3839
-384 c3 -6 22 -18 42 -26 l35 -15 -6 -336 c-4 -185 -7 -613 -7 -949 l0 -613
-32 -13 c-18 -8 -39 -21 -47 -30 -7 -10 -20 -17 -29 -17 -14 0 -151 65 -222
106 -66 37 -904 447 -1233 603 l-108 51 6 33 c4 18 2 44 -4 59 -10 26 -7 29
67 82 42 31 122 88 177 127 311 224 331 238 460 329 39 27 93 66 120 85 28 20
66 47 85 60 19 13 91 64 160 114 69 49 168 119 220 156 52 36 138 97 190 135
97 70 114 78 126 59z m307 -75 c54 -38 140 -98 191 -134 115 -81 280 -199 506
-364 96 -70 201 -146 233 -169 33 -23 139 -102 237 -175 l179 -132 -3 -53 -4
-52 -93 -57 c-52 -31 -105 -63 -119 -70 -14 -7 -99 -55 -190 -107 -191 -108
-213 -120 -380 -214 -69 -38 -150 -84 -180 -102 -64 -38 -331 -191 -375 -215
-16 -9 -51 -28 -77 -43 l-47 -28 -35 23 -36 23 0 952 0 951 38 20 c20 12 42
19 47 18 6 -2 54 -34 108 -72z m2162 -252 c-6 -7 -35 18 -35 31 0 5 9 2 20 -8
11 -10 18 -20 15 -23z m-5209 -152 c91 -67 208 -154 331 -248 34 -26 128 -96
209 -157 81 -60 172 -132 201 -160 30 -27 62 -55 71 -61 13 -10 15 -17 6 -31
-11 -17 -55 -18 -959 -18 -857 0 -949 2 -958 16 -17 27 0 63 45 96 24 17 84
61 133 99 50 38 100 76 111 84 45 32 259 194 264 200 7 7 192 147 249 188 41
30 51 33 96 28 32 -4 61 -1 80 8 17 8 34 13 38 13 4 -1 41 -27 83 -57z m5254
-87 c10 -9 18 -444 20 -1078 2 -788 2 -765 -8 -765 -5 0 -28 37 -52 83 -24 45
-59 111 -78 147 -19 36 -63 119 -97 185 -149 289 -232 446 -280 530 -29 50
-64 114 -79 143 -14 30 -33 63 -41 74 -13 19 -12 24 8 52 23 32 30 109 14 153
-8 21 37 64 271 256 26 22 72 62 102 90 103 97 173 147 195 141 11 -4 22 -9
25 -11z m-9070 -122 c41 -6 194 -24 340 -41 146 -17 284 -33 308 -36 36 -5 44
-10 56 -38 8 -19 19 -37 25 -40 15 -10 14 -43 -4 -74 -17 -32 -315 -642 -315
-647 0 -13 -387 -796 -400 -809 -18 -18 -28 7 -38 98 -6 54 -15 92 -23 97 -10
6 -11 11 -3 17 8 5 5 56 -7 177 -10 94 -28 262 -39 375 -22 218 -53 497 -70
620 -28 215 -32 264 -19 269 7 2 22 14 33 26 15 16 30 22 51 19 17 -2 64 -8
105 -13z m-251 -362 c31 -240 51 -415 76 -667 8 -78 24 -211 35 -295 43 -324
46 -385 21 -375 -12 4 -280 265 -347 338 l-53 57 14 89 c63 404 206 1107 221
1091 2 -2 17 -109 33 -238z m1286 200 c22 -17 241 -77 500 -139 142 -34 220
-53 520 -130 360 -92 345 -87 345 -123 0 -11 10 -31 22 -44 21 -23 21 -23 2
-45 -32 -37 -228 -338 -399 -613 -65 -104 -144 -230 -175 -280 -96 -153 -274
-437 -426 -683 -21 -34 -53 -86 -69 -115 -17 -29 -40 -68 -53 -87 -12 -19 -22
-41 -22 -48 0 -10 -9 -12 -32 -7 -18 4 -35 9 -37 11 -3 2 -13 75 -22 162 -10
86 -30 245 -44 352 -14 107 -36 290 -50 405 -14 116 -32 260 -40 320 -8 61
-21 178 -30 260 -31 290 -44 412 -66 588 l-21 179 27 28 c26 27 44 29 70 9z
m-181 -64 c30 -6 36 -12 41 -39 2 -17 9 -58 15 -91 12 -67 33 -254 55 -480 8
-82 21 -204 29 -270 15 -117 44 -353 86 -700 11 -93 25 -204 31 -245 18 -138
49 -395 49 -410 -1 -8 -12 -23 -26 -33 -25 -19 -25 -18 -107 28 -45 26 -98 56
-117 67 -42 24 -331 195 -412 244 -31 19 -58 34 -61 34 -2 0 -64 36 -138 80
-74 44 -153 89 -176 101 l-43 21 0 62 c0 33 -5 78 -11 99 -11 42 -3 62 137
354 40 83 103 213 140 290 36 76 125 257 197 403 71 146 148 303 169 350 52
112 78 152 93 146 8 -3 30 -8 49 -11z m7405 -325 l34 -29 -12 -73 c-17 -114
-90 -622 -106 -738 -8 -58 -23 -159 -34 -225 -11 -66 -27 -163 -36 -215 -9
-52 -29 -162 -45 -245 -16 -82 -39 -206 -50 -275 -12 -68 -22 -125 -23 -126
-1 -1 -25 -4 -53 -8 l-51 -6 -69 62 c-38 35 -100 90 -139 123 -69 58 -90 77
-230 207 -38 36 -93 85 -120 109 -28 24 -73 64 -100 89 -309 283 -403 371
-420 390 -16 18 -20 38 -21 99 l-2 77 76 44 c42 25 98 58 126 74 28 15 80 45
116 66 36 21 81 47 101 58 73 41 206 116 252 144 26 15 52 28 57 28 6 0 10 5
10 10 0 6 5 10 11 10 7 0 80 39 163 87 83 47 171 97 196 111 25 14 97 55 160
91 63 36 124 71 135 78 30 17 37 15 74 -17z m-3610 -45 l24 -36 -34 -36 c-19
-21 -39 -42 -45 -48 -6 -5 -62 -68 -124 -140 -169 -193 -254 -289 -261 -295
-14 -12 -113 -126 -300 -343 l-93 -108 -46 6 c-31 4 -61 1 -90 -9 l-45 -16
-80 83 c-66 68 -208 220 -326 348 -62 68 -345 365 -440 463 -106 109 -106 109
-92 137 l14 29 957 0 957 0 24 -35z m3802 -55 c22 -41 47 -85 54 -97 21 -32
51 -86 110 -198 29 -55 70 -134 92 -175 22 -41 84 -160 138 -265 109 -211 143
-275 171 -322 18 -30 18 -34 3 -60 -9 -15 -20 -51 -24 -79 -6 -45 -11 -53 -49
-80 -24 -16 -169 -113 -322 -215 -309 -207 -465 -313 -518 -354 -30 -23 -37
-25 -55 -13 -12 7 -21 19 -21 27 0 8 20 118 45 245 49 246 128 702 144 826 17
135 71 512 91 636 11 67 20 136 20 152 0 24 6 32 28 40 15 6 33 10 40 9 7 -1
31 -36 53 -77z m-3251 -73 c129 -63 264 -127 300 -143 53 -23 683 -339 913
-457 38 -20 57 -36 57 -48 0 -22 -9 -24 -140 -39 -52 -6 -135 -17 -185 -25
-101 -16 -211 -31 -560 -75 -132 -17 -251 -33 -265 -35 -48 -8 -296 -34 -391
-41 l-97 -7 -4 89 c-3 49 -6 256 -7 460 l-1 370 34 16 c19 9 42 28 53 41 22
30 -3 39 293 -106z m-2656 -115 c9 -92 21 -210 26 -262 5 -52 14 -133 19 -180
6 -47 22 -211 36 -365 14 -154 29 -315 34 -358 8 -87 8 -86 -59 -110 -25 -8
-97 -34 -160 -57 -63 -23 -214 -75 -335 -116 -121 -40 -292 -97 -380 -127
-257 -88 -354 -117 -368 -112 -7 3 -18 15 -26 26 -11 19 -9 27 20 73 17 28 68
110 111 181 44 72 107 173 140 225 33 52 130 208 216 345 221 356 232 373 342
545 55 85 120 189 145 230 25 41 61 98 80 125 19 28 45 67 59 87 23 34 27 36
54 27 l29 -10 17 -167z m166 131 c48 -53 167 -178 470 -498 63 -66 155 -166
204 -220 50 -55 118 -130 153 -166 60 -61 63 -67 53 -93 -5 -15 -10 -47 -10
-70 l0 -43 -57 -18 c-73 -21 -339 -108 -591 -191 -171 -56 -222 -71 -222 -61
0 1 -16 173 -35 382 -33 356 -44 467 -80 804 -21 188 -20 210 8 221 40 16 53
11 107 -47z m2041 40 c14 -4 17 -44 22 -326 4 -177 7 -386 7 -463 l0 -141 -57
-11 c-32 -6 -103 -16 -158 -22 -141 -15 -327 -38 -489 -61 -166 -23 -176 -23
-176 -5 0 7 -9 25 -20 39 -11 14 -20 29 -20 34 0 4 17 26 38 49 20 22 64 71
97 110 69 79 254 289 335 379 30 33 83 92 116 130 205 234 238 272 248 288 6
10 17 15 26 11 8 -3 22 -8 31 -11z m-5197 -832 c50 -48 132 -127 182 -175 l92
-86 -5 -44 c-7 -56 17 -106 68 -147 l39 -31 -2 -416 c-1 -230 -5 -473 -8 -542
l-5 -125 -22 75 c-43 145 -172 606 -202 720 -17 63 -40 147 -51 185 -26 87
-58 203 -116 415 -25 91 -52 182 -60 203 -30 80 -21 77 90 -32z m6921 32 c6
-25 -2 -36 -87 -117 -51 -49 -185 -179 -298 -290 -113 -111 -266 -259 -341
-331 -74 -71 -247 -238 -385 -371 -388 -374 -425 -409 -437 -412 -7 -1 -27 7
-44 18 l-33 20 -1 362 c-1 200 -4 491 -8 648 -4 157 -4 288 -1 292 3 3 79 14
170 23 310 31 415 43 680 80 146 20 333 45 415 57 135 18 322 43 351 47 7 0
15 -11 19 -26z m98 -266 c-2 -72 -8 -213 -13 -312 -5 -99 -12 -234 -15 -300
-4 -66 -10 -192 -15 -280 -6 -88 -10 -239 -10 -337 l0 -176 -52 -37 -51 -37
-176 11 c-97 7 -268 18 -381 26 -113 7 -275 16 -360 20 -183 7 -449 24 -470
31 -9 2 -21 18 -28 36 -11 30 -10 33 31 67 60 51 216 199 257 244 19 21 60 61
90 90 30 29 140 135 245 237 104 102 253 246 330 320 77 74 239 233 360 352
l219 217 22 -20 c19 -18 21 -28 17 -152z m257 73 c132 -117 350 -315 489 -445
47 -44 120 -109 161 -145 41 -36 91 -81 110 -100 20 -19 74 -69 120 -110 46
-41 89 -80 95 -87 23 -23 1 -133 -26 -133 -13 0 -325 -141 -577 -261 -68 -33
-125 -59 -127 -59 -2 0 -88 -41 -192 -91 -149 -72 -191 -89 -203 -80 -8 6 -30
18 -47 26 l-33 15 6 118 c3 64 14 297 25 517 11 220 24 495 30 610 5 116 11
229 12 252 2 29 9 47 22 57 22 16 18 19 135 -84z m-2036 -272 c3 -156 9 -450
12 -655 l7 -371 -31 -16 -31 -16 -97 123 c-54 67 -148 185 -209 262 -62 77
-130 165 -153 195 -22 30 -66 87 -96 125 -31 39 -75 95 -99 125 -23 30 -80
102 -126 160 -106 134 -109 140 -82 178 11 17 21 37 21 45 0 17 15 20 190 42
69 8 159 19 200 25 41 5 134 17 205 26 72 9 153 20 180 24 28 4 62 8 76 9 l26
1 7 -282z m-1189 72 c10 -11 24 -20 31 -20 25 0 25 -21 1 -53 -22 -29 -115
-178 -157 -252 -59 -104 -289 -501 -352 -610 -42 -71 -119 -204 -171 -295 -52
-90 -102 -169 -110 -174 -37 -24 -36 -29 -77 490 -12 142 -25 309 -30 369 -5
61 -12 148 -16 195 l-7 86 254 83 c140 46 333 109 429 141 96 32 178 59 181
59 3 1 14 -8 24 -19z m261 -82 c21 -29 44 -60 51 -68 16 -18 108 -134 143
-179 50 -65 170 -216 182 -231 22 -25 181 -228 223 -285 22 -29 86 -110 143
-180 56 -70 101 -131 100 -134 -2 -4 -12 -28 -23 -54 -11 -26 -27 -49 -35 -52
-16 -5 -57 -11 -290 -44 -80 -11 -161 -23 -180 -26 -19 -3 -129 -19 -245 -35
-115 -17 -381 -58 -589 -92 -296 -48 -381 -59 -384 -49 -2 7 -18 28 -34 47
l-30 34 87 152 c244 425 419 728 521 901 38 65 74 125 79 135 6 9 17 28 26 42
9 14 35 55 59 92 35 56 47 68 74 71 81 10 82 10 122 -45z m5172 -9 c17 -11 18
-16 4 -83 -7 -39 -21 -123 -31 -186 -10 -63 -23 -125 -29 -137 -15 -28 -15
-36 1 -27 10 6 10 4 0 -7 -7 -7 -13 -34 -13 -59 0 -47 -40 -309 -64 -415 -8
-33 -24 -117 -36 -187 -18 -100 -27 -128 -39 -128 -9 0 -28 -6 -42 -14 -25
-13 -29 -11 -65 21 -35 31 -88 74 -173 138 -117 89 -420 326 -429 337 -6 8
-12 43 -14 78 -3 72 -8 65 92 135 69 48 292 200 344 234 22 14 136 90 255 168
119 79 217 143 219 143 1 0 10 -5 20 -11z m-8678 -177 c146 -86 299 -175 340
-199 359 -210 375 -220 375 -244 0 -16 -5 -23 -14 -21 -11 2 -12 0 -3 -10 6
-7 12 -26 14 -42 3 -28 -3 -32 -97 -83 -55 -30 -183 -98 -285 -150 -102 -53
-250 -131 -330 -173 -80 -43 -170 -89 -200 -102 -54 -24 -56 -24 -85 -6 -16
10 -41 18 -54 18 l-24 0 6 293 c4 160 7 414 7 562 0 252 1 272 20 303 18 29
22 31 43 21 12 -7 141 -82 287 -167z m8822 143 c10 -22 4 -58 -40 -233 -48
-188 -110 -407 -111 -390 -1 3 10 82 23 175 14 92 30 226 37 297 11 119 14
131 38 152 33 30 39 30 53 -1z m-6494 -342 c6 -104 23 -323 37 -488 14 -165
28 -336 31 -380 l6 -80 -51 -24 -50 -25 -303 151 c-167 82 -377 186 -468 229
-90 43 -241 117 -335 164 l-170 85 0 60 0 59 65 22 c138 46 289 96 395 130 61
19 119 39 130 44 11 5 88 31 170 59 145 48 326 111 450 157 33 12 65 22 71 23
6 1 14 -67 22 -186z m-1539 -430 l51 -38 0 -572 0 -573 -27 0 c-14 0 -35 -7
-45 -16 -17 -16 -20 -15 -55 9 -21 14 -81 51 -133 83 -52 33 -102 64 -111 69
-9 6 -36 21 -60 34 -24 13 -129 77 -234 143 -104 66 -199 125 -209 131 -11 7
-71 45 -134 86 l-113 74 25 26 c15 16 26 39 26 54 0 25 13 33 148 102 81 41
296 154 477 249 182 96 333 175 337 175 4 1 30 -16 57 -36z m323 -33 c62 -34
138 -73 168 -87 118 -56 611 -295 875 -425 136 -67 135 -66 135 -115 0 -41 -2
-44 -47 -67 -27 -13 -120 -51 -208 -85 -88 -34 -187 -73 -220 -86 -33 -13
-116 -45 -185 -71 -131 -48 -249 -92 -513 -192 l-159 -59 -38 21 -39 21 2 574
2 574 32 11 c18 6 40 19 50 29 9 9 21 17 25 17 4 0 59 -27 120 -60z m6684 -2
c152 -114 191 -144 229 -175 22 -18 109 -86 194 -152 l154 -119 2 -49 c1 -26
4 -57 8 -68 4 -16 -14 -36 -91 -100 -185 -153 -348 -282 -567 -448 -121 -91
-242 -183 -270 -204 -27 -21 -71 -53 -97 -70 -43 -29 -48 -30 -62 -15 -18 21
-10 66 63 357 60 240 178 723 216 890 16 66 31 126 35 134 6 11 94 67 111 70
3 1 37 -22 75 -51z m-295 17 c13 -13 15 -23 8 -53 -5 -20 -25 -105 -44 -188
-18 -83 -45 -200 -60 -260 -14 -60 -38 -156 -51 -214 -14 -58 -47 -193 -74
-301 -27 -108 -54 -233 -61 -278 -11 -74 -16 -84 -38 -92 -23 -9 -35 1 -176
143 -153 156 -485 475 -627 604 -36 32 -37 34 -23 61 8 15 15 44 15 63 0 31 5
37 38 52 33 15 127 58 267 123 27 12 118 54 201 93 245 114 579 260 598 261 5
1 17 -6 27 -14z m-3177 -430 l15 -35 -62 -83 c-34 -47 -87 -119 -117 -163 -30
-43 -85 -121 -122 -173 -37 -53 -84 -121 -105 -151 -21 -30 -99 -141 -173
-245 -74 -105 -152 -216 -174 -248 -37 -55 -40 -57 -82 -57 -23 0 -54 -4 -68
-10 -22 -8 -28 -5 -51 23 -14 18 -204 210 -422 428 -393 394 -396 397 -379
420 9 13 16 34 16 46 0 13 3 23 8 23 10 1 439 69 657 105 50 8 187 28 305 45
118 17 242 35 275 40 33 5 116 17 185 26 69 9 157 22 195 29 39 7 73 14 77 14
4 1 14 -15 22 -34z m506 20 c52 -2 169 -9 260 -15 248 -15 661 -39 785 -45
174 -9 171 -9 179 -56 4 -22 14 -51 23 -65 15 -24 14 -27 -63 -138 -44 -63
-110 -158 -149 -211 -38 -54 -95 -133 -125 -176 -156 -221 -343 -479 -353
-487 -7 -6 -33 -8 -59 -5 -53 6 -47 -1 -163 198 -126 216 -489 817 -531 878
-35 51 -35 62 -1 109 18 24 26 27 61 23 23 -2 84 -7 136 -10z m-290 -147 c13
-24 42 -70 65 -103 23 -33 66 -100 95 -150 30 -49 79 -130 110 -180 31 -49 60
-97 63 -105 4 -8 59 -100 123 -205 151 -248 197 -333 190 -350 -5 -13 -59 -15
-366 -15 l-360 0 0 278 c0 152 3 408 7 569 6 303 5 294 44 302 3 0 16 -18 29
-41z m-133 -240 c-4 -145 -7 -399 -7 -565 l0 -303 -373 0 c-446 0 -426 -6
-348 112 26 41 77 114 113 163 35 50 86 122 113 160 63 92 221 315 306 435 38
52 94 132 125 178 31 45 62 82 67 82 7 0 8 -88 4 -262z m1995 12 c272 -255
653 -632 666 -658 6 -11 3 -33 -7 -61 l-16 -44 -90 -19 c-233 -49 -772 -133
-1013 -158 -51 -5 -96 -11 -100 -14 -4 -2 -34 -7 -68 -10 -34 -3 -106 -13
-160 -21 -54 -8 -111 -15 -126 -15 -26 0 -28 3 -28 45 0 32 -6 51 -20 65 -11
11 -20 22 -20 24 0 7 58 93 120 176 30 41 66 92 80 112 22 33 254 356 353 491
20 29 49 68 62 87 84 118 80 115 158 120 40 3 73 5 74 5 1 0 62 -56 135 -125z
m-6562 52 c63 -40 114 -73 257 -165 55 -36 134 -85 175 -108 116 -67 216 -126
318 -188 l95 -58 8 -54 c4 -29 4 -55 0 -56 -5 -2 -104 -50 -222 -108 -117 -58
-218 -105 -225 -105 -6 0 -31 39 -56 88 -25 48 -59 112 -76 142 -31 55 -72
130 -134 245 -18 33 -38 67 -45 75 -6 8 -45 80 -85 160 -39 80 -76 149 -81
155 -5 5 -9 13 -9 18 0 9 -1 9 80 -41z m8462 -79 c-78 -131 -105 -179 -135
-238 -12 -22 -40 -70 -64 -108 -24 -37 -43 -69 -43 -72 0 -3 -43 -78 -96 -167
-53 -90 -115 -194 -137 -232 -71 -119 -50 -113 -217 -61 -80 26 -167 55 -195
65 -27 10 -58 21 -67 24 -15 4 -16 10 -6 36 6 17 8 47 5 66 -5 28 -2 36 16 47
42 23 611 453 807 610 107 85 197 154 198 152 2 -2 -27 -57 -66 -122z m-5956
52 c40 -27 101 -33 149 -15 25 10 44 -8 456 -421 236 -237 429 -435 429 -440
0 -4 -4 -11 -10 -14 -5 -3 -10 -15 -10 -26 0 -10 -6 -19 -14 -19 -40 0 -310
34 -479 60 -349 54 -381 59 -537 80 -305 41 -1140 187 -1280 224 -42 11 -45
14 -48 49 -3 37 -3 37 65 68 37 17 93 39 125 50 31 10 67 23 80 28 12 6 52 21
88 35 36 13 121 46 190 72 69 26 188 71 265 100 270 102 351 133 420 163 39
17 71 31 72 31 1 0 19 -11 39 -25z m-1196 -640 c222 -45 556 -104 815 -145
350 -55 445 -69 495 -75 30 -3 80 -10 110 -15 30 -5 114 -18 185 -30 72 -11
155 -25 185 -30 30 -5 114 -17 185 -25 194 -24 224 -33 246 -80 17 -35 18 -41
4 -62 -18 -27 -117 -144 -184 -218 -25 -28 -57 -64 -71 -81 -14 -17 -114 -130
-224 -252 l-199 -221 -40 21 c-33 17 -53 20 -108 16 l-67 -5 -65 51 c-35 28
-138 112 -228 186 -90 74 -177 146 -195 160 -17 14 -126 102 -240 195 -115 94
-248 202 -295 240 -377 303 -479 388 -479 396 0 5 10 7 23 4 12 -3 78 -16 147
-30z m-74 -125 c16 -14 45 -36 64 -50 18 -14 50 -38 71 -55 149 -120 246 -198
259 -208 185 -150 286 -232 290 -237 5 -5 90 -74 265 -215 241 -194 345 -283
345 -296 0 -4 -21 1 -47 12 -27 12 -109 46 -183 76 -129 52 -317 135 -506 224
-49 23 -127 58 -174 79 -47 21 -121 54 -165 75 -44 20 -186 86 -315 145 -129
59 -279 129 -333 154 -54 25 -100 46 -102 46 -2 0 -50 22 -107 48 -57 27 -111
52 -120 55 -25 9 -22 26 5 36 12 5 78 36 147 69 219 104 296 132 368 130 47
-2 66 2 79 15 16 15 20 13 72 -30 31 -26 70 -59 87 -73z m6004 -78 c0 -20 -65
-60 -370 -225 -296 -160 -959 -497 -1280 -650 -732 -350 -868 -409 -911 -395
-8 3 -7 9 3 18 27 27 103 115 133 154 17 22 48 62 70 90 23 28 74 95 115 150
101 133 116 152 182 237 32 41 79 101 104 134 144 187 142 185 188 185 41 0
79 18 104 49 13 16 46 21 522 81 202 26 421 57 605 86 119 19 343 60 405 74
84 20 130 24 130 12z m337 -66 c48 -18 129 -46 178 -60 50 -15 96 -29 103 -32
21 -6 9 -17 -126 -124 -70 -54 -134 -105 -142 -112 -28 -24 -284 -223 -325
-253 -22 -16 -56 -42 -76 -59 -20 -17 -53 -45 -75 -62 -21 -17 -86 -69 -144
-115 -139 -112 -312 -240 -318 -235 -2 3 23 49 56 103 33 54 115 193 182 308
130 222 209 356 244 416 11 20 48 82 81 138 l60 101 60 -5 c39 -3 72 0 95 9
50 19 49 19 147 -18z m-371 -13 c-3 -10 -22 -23 -41 -29 l-35 -11 38 33 c40
34 47 36 38 7z m-70 -96 c-7 -18 -25 -52 -40 -75 -14 -23 -26 -44 -26 -46 0
-3 -17 -33 -38 -68 -22 -35 -64 -106 -95 -158 -30 -52 -96 -164 -146 -248 -50
-84 -91 -155 -91 -157 0 -3 -23 -42 -52 -88 -28 -45 -60 -101 -70 -123 l-18
-42 -97 -10 c-54 -6 -105 -11 -113 -10 -8 0 -94 -5 -190 -11 -186 -12 -1221
-34 -1229 -26 -2 3 3 5 12 5 8 0 102 42 209 94 106 51 234 112 283 136 249
118 372 178 735 360 484 242 568 285 782 406 79 45 177 93 191 94 4 0 1 -15
-7 -33z m-2583 -499 c-3 -282 -6 -514 -7 -514 0 -1 -27 -4 -58 -6 l-56 -5 -97
141 c-149 218 -184 269 -203 294 -45 62 -218 318 -277 410 l-66 103 21 26 c11
14 20 34 20 44 0 18 15 19 364 19 l365 0 -6 -512z m769 470 c8 -24 17 -48 19
-54 2 -5 -39 -64 -91 -130 -117 -147 -164 -208 -238 -304 -135 -178 -296 -380
-349 -439 l-58 -63 3 516 2 516 349 0 349 0 14 -42z m-4522 -101 c52 -24 181
-85 285 -134 105 -50 213 -100 240 -113 28 -12 77 -35 110 -50 33 -15 83 -38
110 -50 28 -12 122 -55 210 -95 88 -40 221 -98 295 -130 74 -31 160 -68 190
-82 30 -14 95 -40 145 -60 49 -19 114 -44 143 -55 28 -12 52 -24 52 -28 0 -4
-24 -11 -52 -14 -29 -4 -127 -20 -218 -36 -229 -40 -220 -39 -370 -46 l-135
-6 -196 169 c-108 92 -245 209 -304 258 -59 50 -116 97 -126 107 -11 9 -38 31
-61 50 -23 18 -46 38 -52 44 -6 5 -63 53 -126 105 -63 52 -133 111 -155 131
-22 20 -53 48 -70 63 -16 14 -25 24 -20 22 6 -3 53 -25 105 -50z m2871 14 c34
-6 44 -17 141 -161 58 -85 138 -202 177 -260 40 -58 120 -175 178 -260 57 -85
122 -179 144 -209 45 -63 50 -86 17 -78 -23 6 -60 10 -458 48 -118 11 -314 31
-435 45 -121 13 -287 31 -370 40 -82 9 -151 17 -152 17 -1 1 -4 14 -8 28 -5
22 10 43 117 161 166 183 242 269 318 358 35 41 84 98 109 126 25 28 66 77 91
107 39 48 49 55 70 50 14 -3 41 -9 61 -12z m-616 -881 c33 -5 105 -14 160 -20
567 -59 803 -82 875 -86 47 -3 118 -11 159 -19 40 -8 84 -15 97 -15 19 0 24
-5 24 -24 0 -36 5 -33 -280 -176 -243 -121 -532 -260 -555 -266 -22 -5 -43 9
-155 104 -150 127 -194 166 -250 222 -36 36 -94 88 -130 115 -66 51 -79 63
-106 101 -12 18 -12 26 -3 48 11 23 18 26 58 26 25 0 73 -4 106 -10z m-387
-45 c28 -14 56 -25 63 -25 8 0 27 -14 43 -30 16 -16 38 -33 50 -36 11 -4 32
-19 47 -34 15 -15 105 -94 200 -176 270 -233 286 -248 258 -241 -20 4 -197 68
-369 131 -19 7 -93 34 -165 60 -71 25 -137 49 -145 52 -77 32 -590 208 -634
218 -45 11 -19 23 64 30 41 4 84 9 95 11 11 2 38 6 60 9 22 3 63 10 91 16 45
10 230 36 276 39 9 0 39 -10 66 -24z m3786 -35 c-8 -8 -191 -74 -274 -98 -69
-20 -245 -85 -265 -97 -17 -11 -661 -229 -775 -263 -19 -6 -113 -38 -209 -71
-95 -34 -176 -61 -180 -61 -8 0 -131 241 -167 329 l-23 54 31 27 c63 57 73 65
96 68 13 1 72 19 130 39 l107 35 490 9 c449 7 974 26 984 35 2 2 18 4 35 4 19
0 27 -3 20 -10z m-1744 -54 c0 -3 -4 -8 -10 -11 -5 -3 -10 -1 -10 4 0 6 5 11
10 11 6 0 10 -2 10 -4z m-250 -156 c14 -11 32 -20 40 -20 8 0 23 -21 34 -48
11 -26 50 -110 87 -187 37 -77 66 -141 66 -142 -2 -1 -1070 -5 -1094 -4 -29 2
-10 18 40 35 28 9 214 99 412 200 198 101 367 184 375 184 8 1 26 -7 40 -18z"/>
</g>
</svg>
